<?xml version="1.0" encoding="utf-8"?>
<!-- Generator: Adobe Illustrator 19.1.1, SVG Export Plug-In . SVG Version: 6.00 Build 0)  -->
<svg version="1.1" id="Layer_1" xmlns="http://www.w3.org/2000/svg" xmlns:xlink="http://www.w3.org/1999/xlink" x="0px" y="0px"
	 viewBox="0 0 150 150" style="enable-background:new 0 0 150 150;" xml:space="preserve">
<style type="text/css">
	.st0{fill:#263C84;}
	.st1{fill:#25336E;}
	.st2{fill:#05658B;}
	.st3{fill:#578B73;}
	.st4{fill:#D78C2A;}
	.st5{fill:#5F98D1;}
	.st6{fill:#1962AE;}
	.st7{fill:#518BC8;}
	.st8{fill:#B1712A;}
	.st9{fill:#FAAE2C;}
	.st10{fill:#EFEFEF;}
	.st11{fill:#404347;}
	.st12{fill-rule:evenodd;clip-rule:evenodd;fill:#6CCDE2;}
	.st13{fill:#6CCDE2;}
	.st14{fill:#373A3E;}
	.st15{fill:#FFFFFF;}
	.st16{opacity:0.2;}
	.st17{fill:none;stroke:#FFFFFF;stroke-width:0.5;stroke-miterlimit:10;}
	.st18{fill:none;stroke:#404347;stroke-width:0.25;stroke-miterlimit:10;}
	.st19{fill:#F4F4F4;}
	.st20{fill:none;stroke:#FFFFFF;stroke-width:0.25;stroke-miterlimit:10;}
	.st21{fill:none;}
	.st22{fill:none;stroke:#909090;stroke-width:0.5;stroke-miterlimit:10;}
	.st23{fill:#909090;}
	.st24{fill:#59C4C5;}
	.st25{fill:none;stroke:#FFFFFF;stroke-width:2;stroke-linecap:round;stroke-miterlimit:10;}
	.st26{fill:none;stroke:#909090;stroke-width:0.25;stroke-miterlimit:10;}
	.st27{fill:#D8D8D8;}
	.st28{opacity:0.6;}
	.st29{fill:none;stroke:#FAAE2C;stroke-width:5;stroke-miterlimit:10;}
	.st30{fill:#FFFFFF;stroke:#FFFFFF;stroke-width:2;stroke-miterlimit:10;}
	.st31{opacity:0.8;fill:#6CCDE2;}
	.st32{opacity:0.15;fill:#909090;}
	.st33{fill:#F9AD2A;}
	.st34{fill:#F5AB26;}
	.st35{fill:#1068B0;}
	.st36{fill:none;stroke:#F5AB26;stroke-miterlimit:10;}
	.st37{clip-path:url(#SVGID_22_);}
	.st38{fill:#59C4C5;stroke:#373A3E;stroke-width:1.2;stroke-miterlimit:10;}
	.st39{fill:none;stroke:#59C4C5;stroke-width:2;stroke-linecap:round;stroke-miterlimit:10;}
	.st40{opacity:0.3;}
	.st41{opacity:0.4;}
	.st42{fill:#F5AB26;stroke:#F5AB26;stroke-width:0.4;stroke-miterlimit:10;}
</style>
<g>
	<path class="st24" d="M146.6,81.1c1.5,0.3,2.8-0.9,2.8-2.3V22.4c0-2.7-2.2-4.8-4.8-4.8H5.2c-2.7,0-4.8,2.2-4.8,4.8v53.3v7.6v34.7
		c0,2.7,2.2,4.8,4.8,4.8h139.4c2.7,0,4.8-2.2,4.8-4.8V96.9c0-1.1-0.8-2.2-1.9-2.4c-1.5-0.3-2.8,0.8-2.8,2.3V116c0,1.2-1,2.2-2.2,2.2
		H7.3c-1.2,0-2.2-1-2.2-2.2V75.9l0,0V24.5c0-1.2,1-2.2,2.2-2.2h135.3c1.2,0,2.2,1,2.2,2.2v54.2C144.7,79.8,145.5,80.9,146.6,81.1z"
		/>
	<path class="st34" d="M47.8,61.4h48.6c1.3,0,2.3-1,2.3-2.3c0-1.3-1-2.3-2.3-2.3H47.8c-1.3,0-2.3,1-2.3,2.3
		C45.5,60.4,46.5,61.4,47.8,61.4z"/>
	<path class="st34" d="M31.5,61.4h8.8c1.3,0,2.3-1,2.3-2.3c0-1.3-1-2.3-2.3-2.3h-8.8c-1.3,0-2.3,1-2.3,2.3
		C29.1,60.4,30.2,61.4,31.5,61.4z"/>
	<path class="st34" d="M31.5,72.6h65c1.3,0,2.3-1,2.3-2.3c0-1.3-1-2.3-2.3-2.3h-65c-1.3,0-2.3,1-2.3,2.3
		C29.1,71.6,30.2,72.6,31.5,72.6z"/>
	<path class="st34" d="M31.5,83.8h65c1.3,0,2.3-1,2.3-2.3c0-1.3-1-2.3-2.3-2.3h-65c-1.3,0-2.3,1-2.3,2.3
		C29.1,82.7,30.2,83.8,31.5,83.8z"/>
	<path class="st34" d="M104.7,103.1l11.1,38.8c0.4,1.2,1.7,2,2.9,1.6c1.2-0.4,2-1.7,1.6-2.9l-11.1-38.8c-0.4-1.2-1.7-2-2.9-1.6
		C105.1,100.5,104.4,101.8,104.7,103.1"/>
	<circle class="st14" cx="98.1" cy="72" r="31.7"/>
	<path class="st24" d="M125.9,87.3l-2-1.1c-5.4,9.7-15.4,15.2-25.7,15.2c-4.8,0-9.7-1.2-14.2-3.7c-9.7-5.4-15.2-15.4-15.2-25.7
		c0-4.8,1.2-9.7,3.7-14.2c5.4-9.7,15.4-15.2,25.7-15.2c4.8,0,9.7,1.2,14.2,3.7c9.7,5.4,15.2,15.4,15.2,25.7c0,4.8-1.2,9.7-3.7,14.2
		L125.9,87.3l2,1.1c2.9-5.2,4.3-10.9,4.3-16.5c0-12-6.3-23.6-17.6-29.8c-5.2-2.9-10.9-4.3-16.5-4.3c-12,0-23.6,6.3-29.8,17.6
		c-2.9,5.2-4.3,10.9-4.3,16.5c0,12,6.3,23.6,17.6,29.8c5.2,2.9,10.9,4.3,16.5,4.3c12,0,23.6-6.3,29.8-17.6L125.9,87.3z"/>
	<polygon class="st14" points="120.2,72.7 120.2,70.8 117.7,66.8 117.7,63.4 117.7,60.6 112.5,58.4 111.4,56.4 109.8,53.2 
		107.6,52.4 103.3,53.2 99,49.5 97.4,49.5 94.5,51.9 92.3,52.8 88.1,52.3 86.4,53.1 84.7,58 79.3,60.1 78.5,61.6 79.4,66.8 76,71.9 
		79.4,76.9 78.4,81.6 79.2,83.5 84.4,85.7 86.3,90.9 88.8,92 92.3,91.4 92.3,92 93.3,92 97.4,94.5 100.3,93.2 101.6,92 107.6,92 
		109.6,90.9 110.8,89 112.5,85.6 117.7,83 117.4,80.7 117.6,77 	"/>
	<path class="st24" d="M120.5,74.4c1.4-1.6,1.4-3.2,0-4.8c-0.6-0.7-1.3-1.5-1.9-2.2c-0.4-0.5-0.6-1-0.4-1.6c0.2-0.9,0.4-1.9,0.6-2.8
		c0.4-2.1-0.4-3.6-2.4-4.3c-0.9-0.3-1.8-0.6-2.7-0.9c-0.6-0.2-1.1-0.6-1.3-1.3c-0.3-1-0.7-2.1-1.1-3.1c-0.6-1.5-2-2.3-3.7-2.1
		c-0.9,0.1-1.9,0.3-2.8,0.5c-0.9,0.2-1.6,0.1-2.3-0.6c-1.1-1-2.2-2.2-3.6-2.7h-1.4c-0.5,0.3-1,0.5-1.4,0.8c-0.8,0.6-1.6,1.3-2.3,2
		c-0.6,0.6-1.2,0.7-2,0.5c-1-0.2-1.9-0.4-2.9-0.6c-1.9-0.3-3.3,0.5-3.9,2.3c-0.3,0.9-0.7,1.9-1,2.8c-0.2,0.7-0.6,1-1.3,1.3
		c-1.1,0.4-2.1,0.7-3.1,1.1c-1.4,0.6-2.2,1.9-2,3.4c0.1,1.1,0.4,2.3,0.6,3.4c0.1,0.6,0,1.1-0.4,1.6c-0.7,0.8-1.4,1.5-2,2.3
		c-1.2,1.5-1.2,3.1,0,4.6c0.6,0.8,1.3,1.5,2,2.3c0.4,0.5,0.6,1,0.5,1.7c-0.2,0.9-0.4,1.9-0.5,2.8c-0.4,2.1,0.5,3.5,2.4,4.2
		c0.7,0.2,1.3,0.5,2,0.7c1.2,0.3,1.9,0.9,2.1,2.1c0.1,0.5,0.3,1,0.5,1.5c0.5,1.8,1.5,3,3.5,3.2l0.7-0.1l0,0c-0.4-0.6-0.5-1.3-0.5-2
		c-0.8,0-1.2-0.3-1.5-1.1c-0.3-0.9-0.6-1.7-0.9-2.6c-0.4-1.3-1.3-2.2-2.6-2.6c-0.9-0.3-1.8-0.6-2.7-0.9c-0.9-0.3-1.2-0.8-1-1.7
		c0.2-1,0.4-2.1,0.6-3.1c0.3-1.3-0.1-2.3-0.9-3.3c-0.6-0.7-1.3-1.5-1.9-2.2c-0.6-0.7-0.6-1.3,0-2c0.7-0.8,1.4-1.6,2.1-2.4
		c0.6-0.7,0.9-1.5,0.9-2.5c-0.2-0.9-0.4-2-0.6-3.2c-0.3-1.5-0.1-1.8,1.4-2.4c0.8-0.3,1.5-0.6,2.3-0.8c1.3-0.4,2.1-1.2,2.5-2.5
		c0.3-0.9,0.6-1.8,0.9-2.7c0.3-1,0.8-1.2,1.8-1.1c0.9,0.2,1.8,0.3,2.7,0.5c1.3,0.3,2.5,0,3.6-0.9c0.7-0.7,1.5-1.3,2.2-1.9
		c0.8-0.6,1.3-0.6,2,0c0.8,0.6,1.5,1.3,2.3,2c1,0.9,2.1,1.1,3.4,0.9c1-0.2,1.9-0.4,2.9-0.6c0.9-0.2,1.4,0.1,1.7,1
		c0.3,0.9,0.7,1.8,1,2.8c0.4,1.3,1.2,2.1,2.5,2.5c0.9,0.3,1.8,0.6,2.6,0.9c1,0.4,1.3,0.8,1.1,1.9c-0.2,0.9-0.3,1.7-0.5,2.6
		c-0.3,1.4,0,2.6,0.9,3.7c0.6,0.7,1.3,1.4,1.9,2.2c0.6,0.7,0.6,1.3,0,2c-0.6,0.7-1.2,1.4-1.8,2c-1,1.1-1.4,2.3-1,3.8
		c0.2,0.9,0.4,1.8,0.5,2.7c0.2,1-0.1,1.4-1,1.7c-0.9,0.3-1.8,0.7-2.8,1c-1.3,0.4-2.1,1.3-2.5,2.6c-0.3,0.9-0.6,1.8-0.9,2.6
		c-0.4,1-0.8,1.3-1.9,1.1l-0.5-0.1c0.3,0.7,0.4,1.4,0.4,2.2l0.8,0.1c1.7-0.2,2.8-1,3.3-2.6c0.3-0.9,0.6-1.7,0.9-2.6
		c0.2-0.7,0.6-1.1,1.3-1.4c1-0.3,2-0.7,3-1.1c1.5-0.6,2.3-1.9,2.1-3.5c-0.1-1.1-0.4-2.2-0.6-3.4c-0.1-0.7,0-1.2,0.5-1.7
		C119.3,75.8,119.9,75.1,120.5,74.4z"/>
	<path class="st24" d="M97.4,95.4h1.4c0.5-0.3,1-0.5,1.4-0.8c0.8-0.6,1.6-1.3,2.3-2c0.6-0.6,1.2-0.7,2-0.5c1,0.2,1.9,0.4,2.9,0.6
		c1.9,0.3,3.3-0.5,3.9-2.3c0.3-0.9,0.7-1.9,1-2.8c0.2-0.7,0.6-1,1.3-1.3c1.1-0.4,2.1-0.7,3.1-1.1c1.4-0.6,2.2-1.9,2-3.4
		c-0.1-1.1-0.4-2.3-0.6-3.4c-0.1-0.6,0-1.1,0.4-1.6c0.7-0.8,1.4-1.5,2-2.3c1.2-1.5,1.2-3.1,0-4.6c-0.6-0.8-1.3-1.5-2-2.3
		c-0.4-0.5-0.6-1-0.5-1.7c0.2-0.9,0.4-1.9,0.6-2.8c0.4-2.1-0.5-3.5-2.4-4.2c-0.7-0.2-1.3-0.5-2-0.7c-1.2-0.3-1.9-0.9-2.1-2.1
		c-0.1-0.5-0.3-1-0.5-1.5c-0.3-1.1-0.8-2-1.6-2.6c-0.2,0.3-0.3,0.6-0.6,0.9c0.4-0.5-0.4,0.5-0.5,0.7l-0.1,0.2
		c0.2,0.2,0.4,0.5,0.6,0.9c0.3,0.9,0.6,1.7,0.9,2.6c0.4,1.3,1.3,2.2,2.6,2.6c0.9,0.3,1.8,0.6,2.7,0.9c0.9,0.3,1.2,0.8,1,1.7
		c-0.2,1-0.4,2.1-0.6,3.1c-0.3,1.3,0.1,2.3,0.9,3.3c0.6,0.7,1.3,1.5,1.9,2.2c0.6,0.7,0.6,1.3,0,2c-0.7,0.8-1.4,1.6-2.1,2.4
		c-0.6,0.7-0.9,1.5-0.9,2.5c0.2,0.9,0.4,2,0.6,3.2c0.3,1.5,0.1,1.8-1.4,2.4c-0.8,0.3-1.5,0.6-2.3,0.8c-1.3,0.4-2.1,1.2-2.5,2.5
		c-0.3,0.9-0.6,1.8-0.9,2.7c-0.3,1-0.8,1.2-1.8,1.1c-0.9-0.2-1.8-0.3-2.7-0.5c-1.3-0.3-2.5,0-3.6,0.9c-0.7,0.7-1.5,1.3-2.2,1.9
		c-0.8,0.6-1.3,0.6-2,0c-0.8-0.6-1.5-1.3-2.3-2c-1-0.9-2.1-1.1-3.4-0.9c-1,0.2-1.9,0.4-2.9,0.6c-0.9,0.2-1.4-0.1-1.7-1
		c-0.3-0.9-0.7-1.8-1-2.8c-0.4-1.3-1.2-2.1-2.5-2.5c-0.9-0.3-1.8-0.6-2.6-0.9c-1-0.4-1.3-0.8-1.1-1.9c0.2-0.9,0.3-1.7,0.5-2.6
		c0.3-1.4,0-2.6-0.9-3.7c-0.6-0.7-1.3-1.4-1.9-2.2c-0.6-0.7-0.6-1.3,0-2c0.6-0.7,1.2-1.4,1.8-2c1-1.1,1.4-2.3,1-3.8
		c-0.2-0.9-0.4-1.8-0.5-2.7c-0.2-1,0.1-1.4,1-1.7c0.9-0.3,1.8-0.7,2.8-1c1.3-0.4,2.1-1.3,2.5-2.6c0.3-0.9,0.6-1.8,0.9-2.6
		c0.1-0.2,0.2-0.4,0.3-0.6c-0.5-0.5-0.9-1.1-1.3-1.6c-0.4,0.4-0.7,0.9-0.9,1.5c-0.3,0.9-0.6,1.7-0.9,2.6c-0.2,0.7-0.6,1.1-1.3,1.4
		c-1,0.3-2,0.7-3,1.1c-1.5,0.6-2.3,1.9-2.1,3.5c0.1,1.1,0.4,2.2,0.6,3.4c0.1,0.7,0,1.2-0.5,1.7c-0.6,0.7-1.3,1.4-1.9,2.2
		c-1.4,1.6-1.4,3.2,0,4.8c0.6,0.7,1.3,1.5,1.9,2.2c0.4,0.5,0.6,1,0.4,1.6c-0.2,0.9-0.4,1.9-0.6,2.8c-0.4,2.1,0.4,3.6,2.4,4.3
		c0.9,0.3,1.8,0.6,2.7,0.9c0.6,0.2,1.1,0.6,1.3,1.3c0.3,1,0.7,2.1,1.1,3.1c0.6,1.5,2,2.3,3.7,2.1c0.9-0.1,1.9-0.3,2.8-0.5
		c0.9-0.2,1.6-0.1,2.3,0.6C94.9,93.7,95.9,94.8,97.4,95.4z"/>
	<path class="st24" d="M84.6,72c0.1,2.6,0.8,5,2.1,7.2c0.1,0.2,0.3,0.4,0.4,0.6c0.4,0.6,0.3,1.3-0.2,1.6c-0.5,0.3-1.1,0.2-1.5-0.4
		c-0.7-1.2-1.5-2.4-1.9-3.7c-2.9-8.2,1-16.8,9.1-19.9c5.1-1.9,9.9-1.2,14.4,1.9c0.6,0.4,0.8,1,0.4,1.5c-0.3,0.5-1,0.6-1.6,0.2
		c-2-1.4-4.2-2.2-6.6-2.4c-6.9-0.6-13.2,4.1-14.5,10.9C84.7,70.3,84.7,71.2,84.6,72z"/>
	<path class="st24" d="M113.7,72.1c-0.2,7.6-5.2,13.7-12.8,15.1c-4.2,0.8-8.2-0.1-11.8-2.6c-0.6-0.4-0.8-1-0.4-1.5
		c0.3-0.5,1-0.7,1.6-0.2c1.8,1.2,3.8,2,5.9,2.4c6.4,1,12.8-3,14.7-9.2c1.3-4.2,0.7-8.1-1.7-11.7L109,64c-0.3-0.6-0.2-1.1,0.3-1.4
		c0.5-0.3,1.1-0.2,1.5,0.3c0.6,1.1,1.3,2.1,1.8,3.3C113.4,68,113.7,70,113.7,72.1z"/>
	<path class="st34" d="M105.6,67.1l-9,9l-4.7-4.7c-0.4-0.4-1-0.4-1.4,0c-0.4,0.4-0.4,1,0,1.4l5.4,5.4c0.2,0.2,0.5,0.3,0.7,0.3
		s0.5-0.1,0.7-0.3l9.7-9.7c0.4-0.4,0.4-1,0-1.4C106.6,66.7,106,66.7,105.6,67.1z"/>
	<path class="st34" d="M96.6,78.8c-0.3,0-0.7-0.1-0.9-0.4L90.3,73c-0.2-0.2-0.4-0.6-0.4-0.9s0.1-0.7,0.4-0.9c0.5-0.5,1.3-0.5,1.8,0
		l4.5,4.5l8.8-8.8c0.5-0.5,1.3-0.5,1.8,0c0.5,0.5,0.5,1.3,0,1.8l-9.7,9.7C97.3,78.7,96.9,78.8,96.6,78.8z M91.2,71.4l-0.5,0.2
		l-0.2,0.5l0.2,0.5l5.4,5.4c0.3,0.3,0.7,0.3,1,0l9.7-9.7c0.3-0.3,0.3-0.7,0-1c-0.3-0.3-0.7-0.3-1,0l-9.2,9.2l-4.9-4.9L91.2,71.4z"/>
</g>
</svg>
