<?xml version="1.0" encoding="utf-8"?>
<!-- Generator: Adobe Illustrator 19.1.1, SVG Export Plug-In . SVG Version: 6.00 Build 0)  -->
<svg version="1.1" id="Capa_1" xmlns="http://www.w3.org/2000/svg" xmlns:xlink="http://www.w3.org/1999/xlink" x="0px" y="0px"
	 viewBox="-1461.5 574.9 200 200" style="enable-background:new -1461.5 574.9 200 200;" xml:space="preserve">
<style type="text/css">
	.st0{fill:#59C4C5;}
	.st1{fill:#F5AB26;}
	.st2{fill:#FFFFFF;}
</style>
<path class="st0" d="M-1275.4,659.5l-5.2-20.6c1.4-0.3,2.5-1.6,2.5-3v-3.3c0-7.2-5.9-13.1-13.1-13.1h-23.5v-6.9
	c0-3.6-2.9-6.4-6.4-6.4h-119.8c-3.6,0-6.4,2.9-6.4,6.4v56.4c0,1.5,1,2.9,2.5,3.2c2,0.4,3.7-1.1,3.7-3.1v-53.8c0-1.6,1.3-3,3-3h114.2
	c1.6,0,3,1.3,3,3v53.7c0,1.5,1,2.9,2.5,3.2c2,0.4,3.7-1.1,3.7-3.1v-3.5h36.8c0,0,0,0,0,0s0,0,0,0c4.5,0,8.4,3,9.7,7.1h-9.7
	c-1.7,0-3.1,1.4-3.1,3.1v6.7c0,5.4,4.4,9.8,9.8,9.8h3.5v13.7h-8.2c-2.7-7.7-10-13.3-18.7-13.3s-16,5.6-18.7,13.3h-1.5l0-23.4
	c0-1.5-1-2.9-2.5-3.2c-2-0.4-3.7,1.1-3.7,3.1v23.5h-64.7c-2.7-7.7-10-13.3-18.7-13.3c-8.6,0-16,5.6-18.7,13.3h-17.9
	c-0.1,0-0.2-0.1-0.2-0.2v-6.9h13.4c1.5,0,2.9-1,3.2-2.5c0.4-2-1.1-3.7-3.1-3.7h-29.8c-1.5,0-2.9,1-3.2,2.5c-0.4,2,1.1,3.7,3.1,3.7
	h10.2v6.9c0,3.6,2.9,6.4,6.4,6.4h16.8c0,0.1,0,0.1,0,0.2c0,10.9,8.9,19.8,19.8,19.8c10.9,0,19.8-8.9,19.8-19.8c0-0.1,0-0.1,0-0.2
	h70.3c0,0.1,0,0.1,0,0.2c0,10.9,8.9,19.8,19.8,19.8c10.9,0,19.8-8.9,19.8-19.8c0-0.1,0-0.1,0-0.2h10.2c1.7,0,3.1-1.4,3.1-3.1v-33.3
	C-1261.5,667.5-1267.6,660.7-1275.4,659.5z M-1314.7,638.9h27.7l5.1,20.4h-32.8V638.9z M-1291.2,625.6c3.8,0,6.9,3.1,6.9,6.9v0.2
	h-30.4v-7.1H-1291.2z M-1404.3,725.8c-7.5,0-13.5-6.1-13.5-13.5s6.1-13.5,13.5-13.5c7.5,0,13.5,6.1,13.5,13.5
	S-1396.9,725.8-1404.3,725.8z M-1294.6,725.8c-7.5,0-13.5-6.1-13.5-13.5s6.1-13.5,13.5-13.5c7.5,0,13.5,6.1,13.5,13.5
	S-1287.1,725.8-1294.6,725.8z M-1271.3,685.9c-1.9,0-3.5-1.6-3.5-3.5v-3.5h7.1v7.1H-1271.3z"/>
<path class="st1" d="M-1404.3,705.8c-3.6,0-6.4,2.9-6.4,6.4s2.9,6.4,6.4,6.4c3.6,0,6.4-2.9,6.4-6.4S-1400.8,705.8-1404.3,705.8z"/>
<path class="st1" d="M-1294.6,705.8c-3.6,0-6.4,2.9-6.4,6.4s2.9,6.4,6.4,6.4s6.4-2.9,6.4-6.4S-1291,705.8-1294.6,705.8z"/>
<path class="st1" d="M-1380.8,695.7c0,1.7,1.4,3.1,3.1,3.1h46.6c1.7,0,3.1-1.4,3.1-3.1s-1.4-3.1-3.1-3.1h-46.6
	C-1379.4,692.5-1380.8,693.9-1380.8,695.7z"/>
<path class="st1" d="M-1450.9,685.5h39.9c1.7,0,3.1-1.4,3.1-3.1s-1.4-3.1-3.1-3.1h-39.9c-1.7,0-3.1,1.4-3.1,3.1
	S-1452.6,685.5-1450.9,685.5z"/>
</svg>
