<?xml version="1.0" encoding="utf-8"?>
<!-- Generator: Adobe Illustrator 19.1.1, SVG Export Plug-In . SVG Version: 6.00 Build 0)  -->
<svg version="1.1" id="Capa_1" xmlns="http://www.w3.org/2000/svg" xmlns:xlink="http://www.w3.org/1999/xlink" x="0px" y="0px"
	 viewBox="-1686.5 349.8 200 200" style="enable-background:new -1686.5 349.8 200 200;" xml:space="preserve">
<style type="text/css">
	.st0{fill:#59C4C5;}
	.st1{fill:#F5AB26;}
	.st2{fill:#FFFFFF;}
</style>
<g>
	<g>
		<g>
			<g>
				<path class="st0" d="M-1529.9,421.6c-1.5,0-2.7,1.2-2.7,2.7v88.2c0,0.8-0.3,1.6-0.9,2.2l-25.8,25.8v-22.6c0-0.1,0.1-0.2,0.2-0.2
					h14.6c1.5,0,2.7-1.2,2.7-2.7c0-1.5-1.2-2.7-2.7-2.7h-14.6c-3.1,0-5.7,2.5-5.7,5.7v26.5h-73.3c-0.1,0-0.2-0.1-0.2-0.2V400.9
					c0-0.1,0.1-0.2,0.2-0.2h40.9c1.5,0,2.7-1.2,2.7-2.7s-1.2-2.7-2.7-2.7h-40.9c-3.1,0-5.7,2.5-5.7,5.7v143.2c0,3.1,2.5,5.7,5.7,5.7
					h73.6c2.3,0,4.4-0.9,6.1-2.5l28.7-28.7c1.6-1.6,2.5-3.8,2.5-6.1v-88.2C-1527.2,422.8-1528.4,421.6-1529.9,421.6z"/>
			</g>
		</g>
	</g>
	<g>
		<g>
			<g>
				<path class="st1" d="M-1567.9,485.9h-52.6c-1.5,0-2.7,1.2-2.7,2.7c0,1.5,1.2,2.7,2.7,2.7h52.6c1.5,0,2.7-1.2,2.7-2.7
					C-1565.2,487.1-1566.4,485.9-1567.9,485.9z"/>
			</g>
		</g>
	</g>
	<g>
		<g>
			<path class="st0" d="M-1550.3,485.9h-5.8c-1.5,0-2.7,1.2-2.7,2.7c0,1.5,1.2,2.7,2.7,2.7h5.8c1.5,0,2.7-1.2,2.7-2.7
				C-1547.6,487.1-1548.8,485.9-1550.3,485.9z"/>
		</g>
	</g>
	<g>
		<g>
			<g>
				<path class="st1" d="M-1550.3,471.2h-70.1c-1.5,0-2.7,1.2-2.7,2.7c0,1.5,1.2,2.7,2.7,2.7h70.1c1.5,0,2.7-1.2,2.7-2.7
					C-1547.6,472.5-1548.8,471.2-1550.3,471.2z"/>
			</g>
		</g>
	</g>
	<path class="st0" d="M-1527.3,386.1c2.1-2.4,2.1-5.1,0-7.5c-0.9-1-1.7-2-2.6-3c-0.4-0.5-0.6-0.9-0.4-1.5c0.2-0.9,0.4-1.8,0.5-2.7
		l0.2-1.1c0.6-3.2-0.8-5.6-3.8-6.6c-1.2-0.4-2.4-0.9-3.7-1.3c-0.7-0.2-1-0.6-1.2-1.2c-0.4-1.4-0.9-2.8-1.5-4.2
		c-1-2.4-3.2-3.7-5.8-3.3c-1.2,0.2-2.6,0.4-3.9,0.7c-1,0.2-1.7,0.1-2.4-0.6c-0.3-0.3-0.6-0.5-0.9-0.8c-1.3-1.2-2.5-2.4-4.3-3l-2.3,0
		l-0.2,0.1c-0.2,0.1-0.4,0.2-0.6,0.3c-0.5,0.2-1,0.5-1.5,0.8c-1.1,0.8-2.2,1.8-3.2,2.8c-0.6,0.5-1.2,0.7-2,0.5
		c-1.4-0.3-2.6-0.5-3.9-0.8c-2.9-0.5-5.2,0.9-6.2,3.6c-0.6,1.5-1,2.7-1.3,3.9c-0.2,0.6-0.6,1-1.2,1.2l-0.5,0.2
		c-1.3,0.4-2.6,0.9-3.9,1.4c-2.3,0.9-3.5,3.1-3.2,5.5c0.2,1.6,0.5,3.3,0.8,4.7c0.1,0.6,0,1-0.4,1.5c-0.8,0.9-1.8,2-2.7,3.2
		c-1.9,2.3-1.9,5,0,7.2c0.9,1,1.8,2.1,2.7,3.1c0.5,0.5,0.6,1,0.4,1.6c-0.2,1-0.4,1.9-0.6,2.9l-0.2,1c-0.6,3.2,0.7,5.5,3.8,6.6
		c0.3,0.1,0.5,0.2,0.8,0.3c0.7,0.2,1.4,0.5,2.1,0.7c1.3,0.3,2.1,1,2.3,2.3c0.1,0.4,0.2,0.8,0.4,1.2c0.1,0.3,0.2,0.5,0.3,0.8
		c0.8,2.8,2.3,4.4,4.7,4.8l0,34.3c0,0.8,0,1.8,1.1,2.5c0.4,0.2,0.7,0.3,1.1,0.3c0.7,0,1.3-0.4,1.7-0.6l2.7-1.7
		c2.5-1.6,5-3.1,7.5-4.7c0.3-0.2,0.3-0.2,0.5,0c1.6,1,3.2,2,4.8,3l2.4,1.5c1.1,0.7,2.2,1.4,3.3,2.1c0.8,0.5,1.7,0.6,2.4,0.2
		c0.7-0.4,1.1-1.2,1.2-2.1c0-0.2,0-0.4,0-0.6l0-0.2l0-33.3c0-0.2,0-0.3,0-0.5c2.2-0.4,3.7-1.7,4.4-4c0.2-0.5,0.4-1.1,0.5-1.6
		c0.2-0.6,0.5-1.3,0.7-1.9c0.2-0.7,0.6-1.1,1.3-1.4c1.5-0.5,2.9-1,4.2-1.5c2.4-0.9,3.7-3.1,3.3-5.6c-0.2-1.5-0.5-2.9-0.8-4.6
		c-0.1-0.6,0-1.1,0.5-1.6C-1529,388.1-1528.2,387.1-1527.3,386.1z M-1534.6,391.8c0.3,1.2,0.5,2.4,0.7,3.7c0.1,0.9,0,1.2-0.9,1.5
		l-0.1,0c-1.2,0.4-2.4,0.9-3.6,1.2c-2,0.6-3.3,2-3.9,4c-0.3,0.9-0.6,1.8-0.9,2.7l-0.3,0.8c-0.4,1-0.7,1.2-1.7,1l-0.8-0.1
		c-1-0.2-2-0.4-3-0.6c-1.9-0.4-3.7,0-5.2,1.4c-1,0.9-2,1.7-3,2.6c-0.8,0.6-1.1,0.6-1.9,0c-1-0.9-2-1.7-3-2.6c-1.2-1-2.5-1.6-3.8-1.6
		c-0.4,0-0.9,0.1-1.4,0.2c-1,0.2-1.9,0.4-2.9,0.6l-0.9,0.2c-1.1,0.2-1.4,0-1.8-1l-0.3-0.9c-0.3-0.9-0.6-1.8-0.9-2.7
		c-0.6-2-2-3.4-4-4c-1.1-0.4-2.3-0.8-3.4-1.2l-0.2-0.1c-0.9-0.3-1-0.6-0.9-1.5c0.2-1.3,0.5-2.7,0.8-4.1c0.4-1.9-0.1-3.6-1.4-5.1
		c-0.9-1-1.7-2-2.6-3c-0.6-0.7-0.6-1.1,0-1.8c0.6-0.7,1.2-1.5,1.9-2.2l0.9-1c0.9-1.1,1.4-2.3,1.4-3.9l0-0.1l-0.2-1.2
		c-0.2-1-0.4-2.1-0.6-3.1c-0.3-1.7-0.3-1.8,1.4-2.3l1-0.3c0.7-0.3,1.4-0.5,2.1-0.7c2-0.6,3.3-2,4-3.9c0.3-1,0.7-1.9,1-2.9l0.3-0.7
		c0.3-1,0.6-1.1,1.6-1c1.2,0.2,2.5,0.5,3.7,0.7c2.1,0.5,4,0,5.5-1.4c1-0.9,2-1.8,3-2.6c0.8-0.6,1-0.6,1.8,0c0.9,0.8,2,1.7,3.1,2.6
		c1.5,1.3,3.3,1.8,5.3,1.4c1.3-0.3,2.6-0.5,3.9-0.7c0.9-0.2,1.2,0,1.5,0.9l0.1,0.2c0.4,1.1,0.8,2.3,1.2,3.5c0.6,2,1.9,3.3,3.9,3.9
		c1.1,0.3,2.1,0.7,3.2,1.1l0.4,0.1c1.1,0.4,1.2,0.6,1,1.7c-0.2,1-0.4,2.3-0.7,3.5c-0.5,2.2,0,4.1,1.5,5.7c0.9,0.9,1.7,1.9,2.5,2.9
		c0.6,0.7,0.6,1.1,0,1.8l-0.5,0.6c-0.6,0.7-1.3,1.5-1.9,2.2C-1534.5,387.6-1535.1,389.6-1534.6,391.8z M-1568.3,411
		c0-0.3,0-0.3,0-0.3c0,0,0.1-0.1,0.4-0.1c1-0.2,2-0.4,2.4-0.1c0.2,0.2,0.5,0.8,0.5,2.5c-0.1,4.5-0.1,9-0.1,13.4c0,1.8,0,3.5,0,5.3
		c0,0.4,0,0.9,0.1,1.4c0.2,1,1,1.7,2.1,1.6c1.1,0,1.9-0.7,2-1.8c0.1-0.4,0.1-0.9,0.1-1.2l0-17.3c0.8,0.3,1.5,0.5,2.3,0.5
		c0.8,0,1.6-0.2,2.4-0.5c0,0,0,0,0.1,0l0,16.9c0,0.5,0,0.9,0,1.4c0.1,1.2,0.9,2,2.1,2c1.1,0,2-0.7,2.2-1.9c0.1-0.4,0.1-0.8,0.1-1.2
		l0-20.1c0-0.3,0.1-0.7,0.3-0.9c0.3-0.2,0.7-0.3,1-0.2c0.8,0.1,1.6,0.2,1.8,0.4c0.1,0.2,0.1,1,0.1,1.8v29.7l-1.9-1.2
		c-2.2-1.4-4.4-2.7-6.5-4.1c-0.5-0.3-1.1-0.5-1.6-0.5s-1,0.2-1.6,0.5c-2.1,1.3-4.2,2.6-6.3,3.9l-2.1,1.3l0-6.7
		C-1568.3,427.3-1568.3,419.1-1568.3,411z"/>
	<path class="st0" d="M-1545.7,364.5c-6.5-4.4-13.3-5.3-20.3-2.6c-11.4,4.3-16.9,16.4-12.8,27.9c0.5,1.5,1.3,2.9,2.1,4.2
		c0.2,0.3,0.4,0.6,0.5,0.9c0.3,0.6,0.8,1,1.4,1.1c0.2,0,0.3,0.1,0.5,0.1c0.4,0,0.8-0.1,1.2-0.3c1.1-0.7,1.3-2,0.5-3.2
		c-0.1-0.2-0.2-0.3-0.3-0.5c-0.1-0.1-0.2-0.2-0.2-0.4c-1.8-2.8-2.7-5.9-2.8-9.3c0-0.3,0.1-0.7,0.1-1c0.1-0.8,0.1-1.5,0.3-2.2
		c1.7-8.9,9.8-15.1,18.8-14.2c3.1,0.3,5.9,1.3,8.6,3.2c0.6,0.4,1.3,0.6,1.9,0.5c0.5-0.1,1-0.4,1.3-0.9
		C-1544.2,366.5-1544.5,365.3-1545.7,364.5z"/>
	<path class="st0" d="M-1538,374.1c-0.7-1.6-1.6-3.1-2.5-4.5c-0.3-0.5-0.8-0.9-1.4-1c-0.6-0.1-1.2,0-1.7,0.3
		c-0.9,0.6-1.2,1.8-0.6,2.9c0.1,0.2,0.2,0.3,0.3,0.5l0.1,0.1c3.1,4.7,3.8,9.9,2.2,15.3c-2.4,8-10.8,13.2-19.2,12
		c-2.8-0.4-5.3-1.4-7.8-3.1c-0.6-0.4-1.3-0.6-1.9-0.4c-0.6,0.1-1,0.5-1.4,1c-0.7,1.1-0.3,2.2,0.8,3c3.9,2.7,8,4.1,12.4,4.1
		c1.4,0,2.8-0.1,4.2-0.4c10.5-2,17.8-10.6,18-21.3v0C-1536.4,379.2-1537,376.5-1538,374.1z"/>
	<g>
		<path class="st1" d="M-1548.3,375.3l-12.9,12.9l-6.7-6.7c-0.6-0.6-1.5-0.6-2.1,0c-0.6,0.6-0.6,1.5,0,2.1l7.7,7.7
			c0.3,0.3,0.7,0.4,1,0.4s0.7-0.1,1-0.4l13.9-13.9c0.6-0.6,0.6-1.5,0-2.1C-1546.8,374.7-1547.7,374.7-1548.3,375.3z"/>
	</g>
</g>
</svg>
