<?xml version="1.0" encoding="utf-8"?>
<!-- Generator: Adobe Illustrator 19.1.1, SVG Export Plug-In . SVG Version: 6.00 Build 0)  -->
<svg version="1.1" id="Layer_1" xmlns="http://www.w3.org/2000/svg" xmlns:xlink="http://www.w3.org/1999/xlink" x="0px" y="0px"
	 viewBox="0 0 150 150" style="enable-background:new 0 0 150 150;" xml:space="preserve">
<style type="text/css">
	.st0{fill:#263C84;}
	.st1{fill:#25336E;}
	.st2{fill:#05658B;}
	.st3{fill:#578B73;}
	.st4{fill:#D78C2A;}
	.st5{fill:#5F98D1;}
	.st6{fill:#1962AE;}
	.st7{fill:#518BC8;}
	.st8{fill:#B1712A;}
	.st9{fill:#FAAE2C;}
	.st10{fill:#EFEFEF;}
	.st11{fill:#404347;}
	.st12{fill-rule:evenodd;clip-rule:evenodd;fill:#6CCDE2;}
	.st13{fill:#6CCDE2;}
	.st14{fill:#373A3E;}
	.st15{fill:#FFFFFF;}
	.st16{opacity:0.2;}
	.st17{fill:none;stroke:#FFFFFF;stroke-width:0.5;stroke-miterlimit:10;}
	.st18{fill:none;stroke:#404347;stroke-width:0.25;stroke-miterlimit:10;}
	.st19{fill:#F4F4F4;}
	.st20{fill:none;stroke:#FFFFFF;stroke-width:0.25;stroke-miterlimit:10;}
	.st21{fill:none;}
	.st22{fill:none;stroke:#909090;stroke-width:0.5;stroke-miterlimit:10;}
	.st23{fill:#909090;}
	.st24{fill:#59C4C5;}
	.st25{fill:none;stroke:#FFFFFF;stroke-width:2;stroke-linecap:round;stroke-miterlimit:10;}
	.st26{fill:none;stroke:#909090;stroke-width:0.25;stroke-miterlimit:10;}
	.st27{fill:#D8D8D8;}
	.st28{opacity:0.6;}
	.st29{fill:none;stroke:#FAAE2C;stroke-width:5;stroke-miterlimit:10;}
	.st30{fill:#FFFFFF;stroke:#FFFFFF;stroke-width:2;stroke-miterlimit:10;}
	.st31{opacity:0.8;fill:#6CCDE2;}
	.st32{opacity:0.15;fill:#909090;}
	.st33{fill:#F9AD2A;}
	.st34{fill:#F5AB26;}
	.st35{fill:#1068B0;}
	.st36{fill:none;stroke:#F5AB26;stroke-miterlimit:10;}
	.st37{clip-path:url(#SVGID_22_);}
	.st38{fill:#59C4C5;stroke:#373A3E;stroke-width:1.2;stroke-miterlimit:10;}
	.st39{fill:none;stroke:#59C4C5;stroke-width:2;stroke-linecap:round;stroke-miterlimit:10;}
	.st40{opacity:0.3;}
	.st41{opacity:0.4;}
	.st42{fill:#F5AB26;stroke:#F5AB26;stroke-width:0.4;stroke-miterlimit:10;}
</style>
<g>
	<path class="st24" d="M45.5,123.6H86c1.2,0,2.1-1,2.1-2.1s-1-2.1-2.1-2.1H45.5c-1.2,0-2.1,1-2.1,2.1S44.3,123.6,45.5,123.6z"/>
	<path class="st34" d="M92.5,123.6h12.3c1.2,0,2.1-1,2.1-2.1s-1-2.1-2.1-2.1H92.5c-1.2,0-2.1,1-2.1,2.1S91.4,123.6,92.5,123.6z"/>
</g>
<path class="st34" d="M97.5,6.2h-4.3v55l-16.9-6.8c-0.3-0.2-0.6-0.3-0.9-0.4c0,0-0.1,0-0.1,0c-0.2,0-0.5,0-0.7,0
	c-0.1,0-0.1,0.1-0.2,0.1c-0.2,0.1-0.4,0.1-0.5,0.2l-17,6.8v-55h-4.3v59c0,0.1,0,0.1,0,0.2c0,0.1,0,0.3,0.1,0.4
	c0,0.2,0.1,0.3,0.2,0.4c0,0,0,0.1,0.1,0.1c0,0.1,0.1,0.1,0.1,0.1c0.1,0.1,0.2,0.3,0.4,0.4c0.1,0.1,0.2,0.1,0.3,0.2
	c0.1,0.1,0.3,0.1,0.5,0.2c0.1,0,0.2,0.1,0.3,0.1c0.1,0,0.2,0.1,0.3,0.1c0.1,0,0.1,0,0.2,0c0.1,0,0.2,0,0.3-0.1
	c0.2,0,0.3-0.1,0.5-0.2c0,0,0.1,0,0.1-0.1l19.1-8.2L94.2,67c0.1,0,0.1,0,0.2,0.1c0.1,0.1,0.3,0.1,0.4,0.2c0.1,0,0.3,0.1,0.4,0.1
	c0.1,0,0.1,0,0.2,0c0.1,0,0.1,0,0.2,0c0.1,0,0.3,0,0.4-0.1c0.1,0,0.3-0.1,0.4-0.2c0.1-0.1,0.2-0.1,0.3-0.2c0.1-0.1,0.2-0.2,0.3-0.3
	c0-0.1,0.1-0.1,0.2-0.2c0-0.1,0-0.1,0.1-0.2c0.1-0.1,0.1-0.3,0.2-0.4c0-0.1,0.1-0.3,0.1-0.4c0-0.1,0-0.1,0-0.2V6.2z"/>
<path class="st24" d="M140.8,94.4c1.4,0.3,2.6-0.8,2.6-2.1v-82c0-2.4-2-4.4-4.4-4.4H11.4c-2.4,0-4.4,2-4.4,4.4v48.8v7v73.7
	c0,2.4,2,4.4,4.4,4.4h127.6c2.4,0,4.4-2,4.4-4.4v-28.5c0-1-0.7-2-1.7-2.2c-1.4-0.3-2.6,0.8-2.6,2.1v26.7c0,1.1-0.9,2-2,2H13.2
	c-1.1,0-2-0.9-2-2V59.2c0,0,0,0,0,0v-47c0-1.1,0.9-2,2-2H137c1.1,0,2,0.9,2,2v80C139.1,93.3,139.8,94.2,140.8,94.4z"/>
</svg>
