<?xml version="1.0" encoding="utf-8"?>
<!-- Generator: Adobe Illustrator 19.1.1, SVG Export Plug-In . SVG Version: 6.00 Build 0)  -->
<svg version="1.1" id="Capa_1" xmlns="http://www.w3.org/2000/svg" xmlns:xlink="http://www.w3.org/1999/xlink" x="0px" y="0px"
	 viewBox="-1686.5 574.9 200 200" style="enable-background:new -1686.5 574.9 200 200;" xml:space="preserve">
<style type="text/css">
	.st0{fill:#59C4C5;}
	.st1{fill:#F5AB26;}
	.st2{fill:#FFFFFF;}
</style>
<g>
	<g>
		<path class="st1" d="M-1584.4,748.6c-3,0-5.4,2.4-5.4,5.4c0,3,2.4,5.4,5.4,5.4c3,0,5.4-2.4,5.4-5.4
			C-1579,751-1581.4,748.6-1584.4,748.6z"/>
	</g>
	<g>
		<path class="st0" d="M-1633.2,669.7c0-27,22-49,49-49c14.6,0,28.4,6.5,37.8,17.8c1.1,1.3,3.1,1.5,4.4,0.4c0.6-0.5,1-1.3,1.1-2.1
			s-0.2-1.7-0.7-2.3c-10.6-12.7-26.1-20.1-42.6-20.1c-30.5,0-55.3,24.8-55.3,55.3c0,5.4,0.8,10.7,2.3,15.9c0.4,1.3,1.6,2.2,3,2.2
			c0.3,0,0.6,0,0.9-0.1c0.8-0.2,1.5-0.8,1.9-1.5c0.4-0.7,0.5-1.6,0.2-2.4C-1632.5,679.2-1633.2,674.5-1633.2,669.7z"/>
		<path class="st0" d="M-1533.4,647.9c-0.7-1.6-2.5-2.3-4.1-1.6c-0.8,0.3-1.4,0.9-1.7,1.7c-0.3,0.8-0.3,1.6,0,2.4
			c2.6,6.1,4,12.7,4,19.4c0,27-22,49-49,49c-16.4,0-31.7-8.2-40.8-21.9c-1-1.4-2.9-1.8-4.4-0.9c-0.7,0.5-1.2,1.2-1.3,2
			s0,1.7,0.5,2.4c10.3,15.5,27.5,24.7,46.1,24.7c30.5,0,55.3-24.8,55.3-55.3C-1528.9,662.2-1530.4,654.8-1533.4,647.9z"/>
	</g>
	<g>
		<path class="st0" d="M-1506.3,649c-1.3,0-2.6-0.8-3-2.2c-7.8-23.5-26.4-42.2-49.7-49.9c-25.3-8.3-53.7-3.4-74.2,12.7
			c-11.9,9.3-21.1,22.3-26.1,36.4c-0.6,1.6-2.4,2.5-4,1.9c-1.6-0.6-2.5-2.4-1.9-4c5.4-15.3,15.4-29.2,28.2-39.3
			c22.1-17.4,52.8-22.7,80.1-13.7c25.2,8.3,45.3,28.4,53.7,53.9c0.5,1.7-0.3,3.4-2,4C-1505.7,649-1506,649-1506.3,649z"/>
	</g>
	<g>
		<path class="st0" d="M-1570,757.2c-1.5,0-2.8-1-3.1-2.5c-0.3-1.7,0.8-3.4,2.5-3.7c21.9-4.3,41.4-17.9,53.5-37.3
			c3.4-5.5,6.2-11.3,8.2-17.3c0.6-1.6,2.3-2.5,4-2c1.6,0.6,2.5,2.3,2,4c-2.2,6.5-5.2,12.8-8.8,18.7c-13,20.8-34.1,35.5-57.6,40.1
			C-1569.6,757.2-1569.8,757.2-1570,757.2z"/>
	</g>
	<g>
		<path class="st0" d="M-1662.6,700.2h-8.8c-7,0-12.7-5.7-12.7-12.7v-31.2c0-7,5.7-12.7,12.7-12.7h8.8c7,0,12.7,5.7,12.7,12.7v31.2
			C-1649.9,694.5-1655.6,700.2-1662.6,700.2z M-1671.4,649.6c-3.7,0-6.7,3-6.7,6.7v31.2c0,3.7,3,6.7,6.7,6.7h8.8
			c3.7,0,6.7-3,6.7-6.7v-31.2c0-3.7-3-6.7-6.7-6.7H-1671.4z"/>
	</g>
	<g>
		<path class="st1" d="M-1663.3,690.1h-7.3c-1.8,0-3.3-1.5-3.3-3.3v-29.9c0-1.8,1.5-3.3,3.3-3.3h7.3c1.8,0,3.3,1.5,3.3,3.3v29.9
			C-1660.1,688.6-1661.5,690.1-1663.3,690.1z"/>
	</g>
	<g>
		<path class="st1" d="M-1502.1,690.1h-7.3c-1.8,0-3.3-1.5-3.3-3.3v-29.9c0-1.8,1.5-3.3,3.3-3.3h7.3c1.8,0,3.3,1.5,3.3,3.3v29.9
			C-1498.8,688.6-1500.3,690.1-1502.1,690.1z"/>
	</g>
	<g>
		<path class="st0" d="M-1501.3,700.2h-8.8c-7,0-12.7-5.7-12.7-12.7v-31.2c0-7,5.7-12.7,12.7-12.7h8.8c7,0,12.7,5.7,12.7,12.7v31.2
			C-1488.7,694.5-1494.3,700.2-1501.3,700.2z M-1510.1,649.6c-3.7,0-6.7,3-6.7,6.7v31.2c0,3.7,3,6.7,6.7,6.7h8.8
			c3.7,0,6.7-3,6.7-6.7v-31.2c0-3.7-3-6.7-6.7-6.7H-1510.1z"/>
	</g>
	<g>
		<path class="st0" d="M-1584.4,771.6c-9.7,0-17.6-7.9-17.6-17.6s7.9-17.6,17.6-17.6s17.6,7.9,17.6,17.6S-1574.7,771.6-1584.4,771.6
			z M-1584.4,742.8c-6.2,0-11.3,5.1-11.3,11.3c0,6.2,5.1,11.3,11.3,11.3c6.2,0,11.3-5.1,11.3-11.3
			C-1573.1,747.8-1578.2,742.8-1584.4,742.8z"/>
	</g>
</g>
</svg>
