<?xml version="1.0" encoding="utf-8"?>
<!-- Generator: Adobe Illustrator 21.0.0, SVG Export Plug-In . SVG Version: 6.00 Build 0)  -->
<svg version="1.1" id="Layer_1" xmlns="http://www.w3.org/2000/svg" xmlns:xlink="http://www.w3.org/1999/xlink" x="0px" y="0px"
	 viewBox="0 0 79.5 51.7" style="enable-background:new 0 0 79.5 51.7;" xml:space="preserve">
<style type="text/css">
	.st0{fill:#6CCDE2;}
</style>
<g>
	<g>
		<path class="st0" d="M18.6,51.7c-4.4,0-8-3.6-8-8s3.6-8,8-8s8,3.6,8,8S22.9,51.7,18.6,51.7z M18.6,38.4c-2.9,0-5.3,2.4-5.3,5.3
			c0,2.9,2.4,5.3,5.3,5.3s5.3-2.4,5.3-5.3C23.9,40.8,21.5,38.4,18.6,38.4z"/>
		<path class="st0" d="M63.6,51.7c-4.4,0-8-3.6-8-8s3.6-8,8-8s8,3.6,8,8S68,51.7,63.6,51.7z M63.6,38.4c-2.9,0-5.3,2.4-5.3,5.3
			c0,2.9,2.4,5.3,5.3,5.3c2.9,0,5.3-2.4,5.3-5.3C68.9,40.8,66.5,38.4,63.6,38.4z"/>
		<path class="st0" d="M78.2,45.1h-8v-2.7h6.6V29.5L65.5,11.9H53v30.5h4v2.7h-5.3c-0.7,0-1.3-0.6-1.3-1.3V10.6
			c0-0.7,0.6-1.3,1.3-1.3h14.6c0.5,0,0.9,0.2,1.1,0.6l11.9,18.6c0.1,0.2,0.2,0.5,0.2,0.7v14.6C79.5,44.5,78.9,45.1,78.2,45.1z"/>
		<path class="st0" d="M76.9,29.2H57c-0.7,0-1.3-0.6-1.3-1.3v-12c0-0.7,0.6-1.3,1.3-1.3h11.9v2.7H58.3v9.3h18.6V29.2z"/>
		<path class="st0" d="M51.7,45.1H25.2v-2.7h25.2V2.7H2.7v39.8H12v2.7H1.3c-0.7,0-1.3-0.6-1.3-1.3V1.3C0,0.6,0.6,0,1.3,0h50.4
			C52.4,0,53,0.6,53,1.3v42.4C53,44.5,52.4,45.1,51.7,45.1z"/>
		<path class="st0" d="M1.3,37.1H8c0.7,0,1.3,0.6,1.3,1.3l0,0c0,0.7-0.6,1.3-1.3,1.3H1.3V37.1z"/>
		<path class="st0" d="M29.2,37.1h21.2v2.7H29.2c-0.7,0-1.3-0.6-1.3-1.3l0,0C27.8,37.7,28.4,37.1,29.2,37.1z"/>
		<path class="st0" d="M74.2,37.1h4v2.7h-4c-0.7,0-1.3-0.6-1.3-1.3l0,0C72.9,37.7,73.5,37.1,74.2,37.1z"/>
		<path class="st0" d="M6.6,5.3h45.1V8H6.6C5.9,8,5.3,7.4,5.3,6.6l0,0C5.3,5.9,5.9,5.3,6.6,5.3z"/>
		<path class="st0" d="M18.6,42.4L18.6,42.4c0.7,0,1.3,0.6,1.3,1.3l0,0c0,0.7-0.6,1.3-1.3,1.3l0,0c-0.7,0-1.3-0.6-1.3-1.3l0,0
			C17.2,43,17.8,42.4,18.6,42.4z"/>
		<path class="st0" d="M63.6,42.4L63.6,42.4c0.7,0,1.3,0.6,1.3,1.3l0,0c0,0.7-0.6,1.3-1.3,1.3l0,0c-0.7,0-1.3-0.6-1.3-1.3l0,0
			C62.3,43,62.9,42.4,63.6,42.4z"/>
	</g>
</g>
</svg>
