<?xml version="1.0" encoding="utf-8"?>
<!-- Generator: Adobe Illustrator 19.1.1, SVG Export Plug-In . SVG Version: 6.00 Build 0)  -->
<svg version="1.1" id="Layer_1" xmlns="http://www.w3.org/2000/svg" xmlns:xlink="http://www.w3.org/1999/xlink" x="0px" y="0px"
	 viewBox="0 0 494.2 266.8" style="enable-background:new 0 0 494.2 266.8;" xml:space="preserve">
<style type="text/css">
	.st0{fill:#1268B1;}
	.st1{fill:#5AC5C6;stroke:#5AC5C6;stroke-width:0.25;stroke-miterlimit:10;}
	.st2{fill:#F6AC27;}
	.st3{fill:#5AC5C6;}
	.st4{fill:#FAAE2B;}
	.st5{fill:#F19A20;}
	.st6{fill:#9D3721;}
	.st7{fill:#F8AD29;}
	.st8{fill:#008B94;}
	.st9{fill:#AD3B25;}
	.st10{fill:#CDCCCC;}
	.st11{fill:#FFFFFF;}
</style>
	<path class="st4" d="M470.2,73.1h-36.4c-3.2,0-5.9,2.6-5.9,5.9v64.5c0,3.2,2.6,5.9,5.9,5.9c3.2,0,5.9-2.6,5.9-5.9v-22.2h30.6
	c3.2,0,5.9-2.6,5.9-5.9V78.9C476,75.7,473.4,73.1,470.2,73.1z M464.3,102.6c0,3.8-3.1,6.9-6.9,6.9h-11c-3.7,0-6.8-3-6.8-6.8V91.6
	c0-3.8,3.1-6.9,6.9-6.9h11.1c3.7,0,6.8,3,6.8,6.8V102.6z"/>
	<path class="st4" d="M488.2,73.1c-3.2,0-5.8,2.6-5.8,5.8v63.6c0,3.2,2.6,5.8,5.8,5.8c3.2,0,5.8-2.6,5.8-5.8V78.8
	C494,75.7,491.4,73.1,488.2,73.1z"/>
	<path class="st2" d="M293.8,84.8h18.9c3.2,0,5.9-2.6,5.9-5.9c0-3.2-2.6-5.9-5.9-5.9h-24.8c-3.2,0-5.9,2.6-5.9,5.9v17.4v29.7v17.4
	c0,3.2,2.6,5.9,5.9,5.9h24.8c3.2,0,5.9-2.6,5.9-5.9c0-3.2-2.6-5.9-5.9-5.9h-18.9v-11.6v-9h17.1c3.2,0,5.9-2.6,5.9-5.9
	c0-3.2-2.6-5.9-5.9-5.9h-17.1v-9V84.8z"/>
	<path class="st2" d="M264.3,73.1h-36.4c-3.2,0-5.9,2.6-5.9,5.9v64.5c0,3.2,2.6,5.9,5.9,5.9c3.2,0,5.9-2.6,5.9-5.9v-22.2l26.4,26.4
	c2.3,2.3,6,2.3,8.3,0c2.3-2.3,2.3-6,0-8.3l-18.1-18.1h14c3.2,0,5.9-2.6,5.9-5.9V78.9C270.1,75.7,267.5,73.1,264.3,73.1z
	 M258.4,102.2c0,4-3.3,7.3-7.3,7.3H241c-4,0-7.3-3.3-7.3-7.3V92c0-4,3.2-7.2,7.2-7.2h10.3c4,0,7.2,3.2,7.2,7.2V102.2z"/>
	<path class="st2" d="M357.9,73.1h-27.4c-3.2,0-5.9,2.6-5.9,5.9c0,3.2,2.6,5.9,5.9,5.9h7.8v58.7c0,3.2,2.6,5.9,5.9,5.9
	c3.2,0,5.9-2.6,5.9-5.9V84.8h7.8c3.2,0,5.9-2.6,5.9-5.9C363.7,75.7,361.1,73.1,357.9,73.1z"/>
	<path class="st2" d="M413.8,73.1h-36.6c-3.1,0-5.5,2.4-5.8,5.4h-0.1v65.1c0,3.2,2.6,5.9,5.9,5.9h5.9h30.8c3.1,0,5.6-2.5,5.6-5.6
	V78.7C419.4,75.6,416.9,73.1,413.8,73.1z M407.7,131c0,3.7-3,6.7-6.7,6.7h-11.5c-3.6,0-6.6-2.9-6.6-6.6V91.4c0-3.7,3-6.6,6.6-6.6
	h11.2c3.8,0,6.8,3.1,6.8,6.8V131z"/>
	<g>
	<g>
		<path class="st3" d="M220,184.1c0-9.4,5.2-15.1,12.6-15.1c7.3,0,12.5,5.7,12.5,15.1c0,9.4-5.2,15.3-12.5,15.3
			C225.2,199.4,220,193.5,220,184.1z M241.3,184.1c0-7.3-3.4-11.8-8.7-11.8c-5.3,0-8.7,4.5-8.7,11.8c0,7.3,3.4,12.1,8.7,12.1
			C237.8,196.2,241.3,191.4,241.3,184.1z"/>
		<path class="st3" d="M251.2,169.6h3.8l10.6,18.4l3.2,6.1h0.2c-0.2-3-0.5-6.3-0.5-9.3v-15.2h3.5v29.3h-3.8l-10.6-18.5l-3.2-6h-0.2
			c0.2,3,0.4,6.1,0.4,9.2v15.3h-3.5V169.6z"/>
		<path class="st3" d="M279.9,169.6h3.8v26.2h12.8v3.2h-16.5V169.6z"/>
		<path class="st3" d="M301.4,169.6h3.8v29.3h-3.8V169.6z"/>
		<path class="st3" d="M313,169.6h3.8l10.6,18.4l3.2,6.1h0.2c-0.2-3-0.5-6.3-0.5-9.3v-15.2h3.5v29.3H330l-10.6-18.5l-3.2-6h-0.2
			c0.2,3,0.4,6.1,0.4,9.2v15.3H313V169.6z"/>
		<path class="st3" d="M341.7,169.6h16.9v3.1h-13.1v9.2h11.1v3.2h-11.1v10.6H359v3.2h-17.4V169.6z"/>
		<path class="st3" d="M374.2,192.5c2.1,2.2,5,3.7,8.1,3.7c3.8,0,6.1-1.9,6.1-4.8c0-3-2.1-3.9-4.9-5.2l-4.2-1.8
			c-2.7-1.2-5.9-3.3-5.9-7.6c0-4.5,3.9-7.8,9.3-7.8c3.5,0,6.6,1.5,8.6,3.6l-2,2.4c-1.8-1.7-4-2.8-6.7-2.8c-3.3,0-5.5,1.7-5.5,4.3
			c0,2.8,2.6,3.9,4.9,4.9l4.2,1.8c3.4,1.5,6,3.5,6,7.8c0,4.7-3.8,8.4-10,8.4c-4.1,0-7.7-1.7-10.2-4.3L374.2,192.5z"/>
		<path class="st3" d="M403.9,172.7H395v-3.1h21.5v3.1h-8.9v26.2h-3.7V172.7z"/>
		<path class="st3" d="M419.8,184.1c0-9.4,5.2-15.1,12.6-15.1c7.3,0,12.5,5.7,12.5,15.1c0,9.4-5.2,15.3-12.5,15.3
			C425,199.4,419.8,193.5,419.8,184.1z M441,184.1c0-7.3-3.4-11.8-8.7-11.8c-5.3,0-8.7,4.5-8.7,11.8c0,7.3,3.4,12.1,8.7,12.1
			C437.6,196.2,441,191.4,441,184.1z"/>
		<path class="st3" d="M467.1,198.9l-7.1-12.4h-5.3v12.4H451v-29.3h9.2c5.9,0,10.2,2.1,10.2,8.2c0,4.6-2.6,7.3-6.6,8.3l7.5,12.8
			H467.1z M454.7,183.5h4.9c4.6,0,7.1-1.9,7.1-5.7c0-3.8-2.5-5.2-7.1-5.2h-4.9V183.5z"/>
		<path class="st3" d="M476.7,169.6h16.9v3.1h-13.1v9.2h11.1v3.2h-11.1v10.6h13.6v3.2h-17.4V169.6z"/>
	</g>
		<g>
		<path class="st3" d="M220,184.1c0-9.4,5.2-15.1,12.6-15.1c7.3,0,12.5,5.7,12.5,15.1c0,9.4-5.2,15.3-12.5,15.3
			C225.2,199.4,220,193.5,220,184.1z M241.3,184.1c0-7.3-3.4-11.8-8.7-11.8c-5.3,0-8.7,4.5-8.7,11.8c0,7.3,3.4,12.1,8.7,12.1
			C237.8,196.2,241.3,191.4,241.3,184.1z"/>
			<path class="st3" d="M251.2,169.6h3.8l10.6,18.4l3.2,6.1h0.2c-0.2-3-0.5-6.3-0.5-9.3v-15.2h3.5v29.3h-3.8l-10.6-18.5l-3.2-6h-0.2
			c0.2,3,0.4,6.1,0.4,9.2v15.3h-3.5V169.6z"/>
			<path class="st3" d="M279.9,169.6h3.8v26.2h12.8v3.2h-16.5V169.6z"/>
			<path class="st3" d="M301.4,169.6h3.8v29.3h-3.8V169.6z"/>
			<path class="st3" d="M313,169.6h3.8l10.6,18.4l3.2,6.1h0.2c-0.2-3-0.5-6.3-0.5-9.3v-15.2h3.5v29.3H330l-10.6-18.5l-3.2-6h-0.2
			c0.2,3,0.4,6.1,0.4,9.2v15.3H313V169.6z"/>
			<path class="st3" d="M341.7,169.6h16.9v3.1h-13.1v9.2h11.1v3.2h-11.1v10.6H359v3.2h-17.4V169.6z"/>
			<path class="st3" d="M374.2,192.5c2.1,2.2,5,3.7,8.1,3.7c3.8,0,6.1-1.9,6.1-4.8c0-3-2.1-3.9-4.9-5.2l-4.2-1.8
			c-2.7-1.2-5.9-3.3-5.9-7.6c0-4.5,3.9-7.8,9.3-7.8c3.5,0,6.6,1.5,8.6,3.6l-2,2.4c-1.8-1.7-4-2.8-6.7-2.8c-3.3,0-5.5,1.7-5.5,4.3
			c0,2.8,2.6,3.9,4.9,4.9l4.2,1.8c3.4,1.5,6,3.5,6,7.8c0,4.7-3.8,8.4-10,8.4c-4.1,0-7.7-1.7-10.2-4.3L374.2,192.5z"/>
			<path class="st3" d="M403.9,172.7H395v-3.1h21.5v3.1h-8.9v26.2h-3.7V172.7z"/>
			<path class="st3" d="M419.8,184.1c0-9.4,5.2-15.1,12.6-15.1c7.3,0,12.5,5.7,12.5,15.1c0,9.4-5.2,15.3-12.5,15.3
			C425,199.4,419.8,193.5,419.8,184.1z M441,184.1c0-7.3-3.4-11.8-8.7-11.8c-5.3,0-8.7,4.5-8.7,11.8c0,7.3,3.4,12.1,8.7,12.1
			C437.6,196.2,441,191.4,441,184.1z"/>
			<path class="st3" d="M467.1,198.9l-7.1-12.4h-5.3v12.4H451v-29.3h9.2c5.9,0,10.2,2.1,10.2,8.2c0,4.6-2.6,7.3-6.6,8.3l7.5,12.8
			H467.1z M454.7,183.5h4.9c4.6,0,7.1-1.9,7.1-5.7c0-3.8-2.5-5.2-7.1-5.2h-4.9V183.5z"/>
			<path class="st3" d="M476.7,169.6h16.9v3.1h-13.1v9.2h11.1v3.2h-11.1v10.6h13.6v3.2h-17.4V169.6z"/>
	</g>
		<g>
		<path class="st3" d="M220,184.1c0-9.4,5.2-15.1,12.6-15.1c7.3,0,12.5,5.7,12.5,15.1c0,9.4-5.2,15.3-12.5,15.3
			C225.2,199.4,220,193.5,220,184.1z M241.3,184.1c0-7.3-3.4-11.8-8.7-11.8c-5.3,0-8.7,4.5-8.7,11.8c0,7.3,3.4,12.1,8.7,12.1
			C237.8,196.2,241.3,191.4,241.3,184.1z"/>
			<path class="st3" d="M251.2,169.6h3.8l10.6,18.4l3.2,6.1h0.2c-0.2-3-0.5-6.3-0.5-9.3v-15.2h3.5v29.3h-3.8l-10.6-18.5l-3.2-6h-0.2
			c0.2,3,0.4,6.1,0.4,9.2v15.3h-3.5V169.6z"/>
			<path class="st3" d="M279.9,169.6h3.8v26.2h12.8v3.2h-16.5V169.6z"/>
			<path class="st3" d="M301.4,169.6h3.8v29.3h-3.8V169.6z"/>
			<path class="st3" d="M313,169.6h3.8l10.6,18.4l3.2,6.1h0.2c-0.2-3-0.5-6.3-0.5-9.3v-15.2h3.5v29.3H330l-10.6-18.5l-3.2-6h-0.2
			c0.2,3,0.4,6.1,0.4,9.2v15.3H313V169.6z"/>
			<path class="st3" d="M341.7,169.6h16.9v3.1h-13.1v9.2h11.1v3.2h-11.1v10.6H359v3.2h-17.4V169.6z"/>
			<path class="st3" d="M374.2,192.5c2.1,2.2,5,3.7,8.1,3.7c3.8,0,6.1-1.9,6.1-4.8c0-3-2.1-3.9-4.9-5.2l-4.2-1.8
			c-2.7-1.2-5.9-3.3-5.9-7.6c0-4.5,3.9-7.8,9.3-7.8c3.5,0,6.6,1.5,8.6,3.6l-2,2.4c-1.8-1.7-4-2.8-6.7-2.8c-3.3,0-5.5,1.7-5.5,4.3
			c0,2.8,2.6,3.9,4.9,4.9l4.2,1.8c3.4,1.5,6,3.5,6,7.8c0,4.7-3.8,8.4-10,8.4c-4.1,0-7.7-1.7-10.2-4.3L374.2,192.5z"/>
			<path class="st3" d="M403.9,172.7H395v-3.1h21.5v3.1h-8.9v26.2h-3.7V172.7z"/>
			<path class="st3" d="M419.8,184.1c0-9.4,5.2-15.1,12.6-15.1c7.3,0,12.5,5.7,12.5,15.1c0,9.4-5.2,15.3-12.5,15.3
			C425,199.4,419.8,193.5,419.8,184.1z M441,184.1c0-7.3-3.4-11.8-8.7-11.8c-5.3,0-8.7,4.5-8.7,11.8c0,7.3,3.4,12.1,8.7,12.1
			C437.6,196.2,441,191.4,441,184.1z"/>
			<path class="st3" d="M467.1,198.9l-7.1-12.4h-5.3v12.4H451v-29.3h9.2c5.9,0,10.2,2.1,10.2,8.2c0,4.6-2.6,7.3-6.6,8.3l7.5,12.8
			H467.1z M454.7,183.5h4.9c4.6,0,7.1-1.9,7.1-5.7c0-3.8-2.5-5.2-7.1-5.2h-4.9V183.5z"/>
			<path class="st3" d="M476.7,169.6h16.9v3.1h-13.1v9.2h11.1v3.2h-11.1v10.6h13.6v3.2h-17.4V169.6z"/>
	</g>
		<g>
		<path class="st3" d="M220,184.1c0-9.4,5.2-15.1,12.6-15.1c7.3,0,12.5,5.7,12.5,15.1c0,9.4-5.2,15.3-12.5,15.3
			C225.2,199.4,220,193.5,220,184.1z M241.3,184.1c0-7.3-3.4-11.8-8.7-11.8c-5.3,0-8.7,4.5-8.7,11.8c0,7.3,3.4,12.1,8.7,12.1
			C237.8,196.2,241.3,191.4,241.3,184.1z"/>
			<path class="st3" d="M251.2,169.6h3.8l10.6,18.4l3.2,6.1h0.2c-0.2-3-0.5-6.3-0.5-9.3v-15.2h3.5v29.3h-3.8l-10.6-18.5l-3.2-6h-0.2
			c0.2,3,0.4,6.1,0.4,9.2v15.3h-3.5V169.6z"/>
			<path class="st3" d="M279.9,169.6h3.8v26.2h12.8v3.2h-16.5V169.6z"/>
			<path class="st3" d="M301.4,169.6h3.8v29.3h-3.8V169.6z"/>
			<path class="st3" d="M313,169.6h3.8l10.6,18.4l3.2,6.1h0.2c-0.2-3-0.5-6.3-0.5-9.3v-15.2h3.5v29.3H330l-10.6-18.5l-3.2-6h-0.2
			c0.2,3,0.4,6.1,0.4,9.2v15.3H313V169.6z"/>
			<path class="st3" d="M341.7,169.6h16.9v3.1h-13.1v9.2h11.1v3.2h-11.1v10.6H359v3.2h-17.4V169.6z"/>
			<path class="st3" d="M374.2,192.5c2.1,2.2,5,3.7,8.1,3.7c3.8,0,6.1-1.9,6.1-4.8c0-3-2.1-3.9-4.9-5.2l-4.2-1.8
			c-2.7-1.2-5.9-3.3-5.9-7.6c0-4.5,3.9-7.8,9.3-7.8c3.5,0,6.6,1.5,8.6,3.6l-2,2.4c-1.8-1.7-4-2.8-6.7-2.8c-3.3,0-5.5,1.7-5.5,4.3
			c0,2.8,2.6,3.9,4.9,4.9l4.2,1.8c3.4,1.5,6,3.5,6,7.8c0,4.7-3.8,8.4-10,8.4c-4.1,0-7.7-1.7-10.2-4.3L374.2,192.5z"/>
			<path class="st3" d="M403.9,172.7H395v-3.1h21.5v3.1h-8.9v26.2h-3.7V172.7z"/>
			<path class="st3" d="M419.8,184.1c0-9.4,5.2-15.1,12.6-15.1c7.3,0,12.5,5.7,12.5,15.1c0,9.4-5.2,15.3-12.5,15.3
			C425,199.4,419.8,193.5,419.8,184.1z M441,184.1c0-7.3-3.4-11.8-8.7-11.8c-5.3,0-8.7,4.5-8.7,11.8c0,7.3,3.4,12.1,8.7,12.1
			C437.6,196.2,441,191.4,441,184.1z"/>
			<path class="st3" d="M467.1,198.9l-7.1-12.4h-5.3v12.4H451v-29.3h9.2c5.9,0,10.2,2.1,10.2,8.2c0,4.6-2.6,7.3-6.6,8.3l7.5,12.8
			H467.1z M454.7,183.5h4.9c4.6,0,7.1-1.9,7.1-5.7c0-3.8-2.5-5.2-7.1-5.2h-4.9V183.5z"/>
			<path class="st3" d="M476.7,169.6h16.9v3.1h-13.1v9.2h11.1v3.2h-11.1v10.6h13.6v3.2h-17.4V169.6z"/>
	</g>
</g>
	<path class="st0" d="M203.1,0.3H19C8.7,0.2,0.4,8.4,0.4,18.7v156.2c0,10.2,8.2,18.5,18.4,18.5l1,0c10.2,0,18.5-8.3,18.5-18.5
	l0.1-118.1c0-10.2,8.3-18.5,18.5-18.5l88.5,0.1L66.1,97.6c-8.2,6.1-9.9,17.7-3.8,25.9l101.1,135.5c6.1,8.2,17.7,9.9,25.9,3.8
	l0.8-0.6c8.2-6.1,9.9-17.7,3.8-25.9l-78.3-105c-6.1-8.2-4.4-19.8,3.8-25.9l93.8-70c5.3-3.6,8.5-9,8.5-15.5l0-1
	C221.6,8.6,213.4,0.3,203.1,0.3z"/>
</svg>