<?xml version="1.0" encoding="utf-8"?>
<!-- Generator: Adobe Illustrator 19.1.1, SVG Export Plug-In . SVG Version: 6.00 Build 0)  -->
<svg version="1.1" id="Layer_1" xmlns="http://www.w3.org/2000/svg" xmlns:xlink="http://www.w3.org/1999/xlink" x="0px" y="0px"
	 viewBox="0 0 494.2 266.8" style="enable-background:new 0 0 494.2 266.8;" xml:space="preserve">
<style type="text/css">
	.st0{fill:#1268B1;}
	.st2{fill:#F6AC27;}
	.st4{fill:#FAAE2B;}
</style>
	<path class="st4" d="M470.2,73.1h-36.4c-3.2,0-5.9,2.6-5.9,5.9v64.5c0,3.2,2.6,5.9,5.9,5.9c3.2,0,5.9-2.6,5.9-5.9v-22.2h30.6
	c3.2,0,5.9-2.6,5.9-5.9V78.9C476,75.7,473.4,73.1,470.2,73.1z M464.3,102.6c0,3.8-3.1,6.9-6.9,6.9h-11c-3.7,0-6.8-3-6.8-6.8V91.6
	c0-3.8,3.1-6.9,6.9-6.9h11.1c3.7,0,6.8,3,6.8,6.8V102.6z"/>
	<path class="st4" d="M488.2,73.1c-3.2,0-5.8,2.6-5.8,5.8v63.6c0,3.2,2.6,5.8,5.8,5.8c3.2,0,5.8-2.6,5.8-5.8V78.8
	C494,75.7,491.4,73.1,488.2,73.1z"/>
	<path class="st2" d="M293.8,84.8h18.9c3.2,0,5.9-2.6,5.9-5.9c0-3.2-2.6-5.9-5.9-5.9h-24.8c-3.2,0-5.9,2.6-5.9,5.9v17.4v29.7v17.4
	c0,3.2,2.6,5.9,5.9,5.9h24.8c3.2,0,5.9-2.6,5.9-5.9c0-3.2-2.6-5.9-5.9-5.9h-18.9v-11.6v-9h17.1c3.2,0,5.9-2.6,5.9-5.9
	c0-3.2-2.6-5.9-5.9-5.9h-17.1v-9V84.8z"/>
	<path class="st2" d="M264.3,73.1h-36.4c-3.2,0-5.9,2.6-5.9,5.9v64.5c0,3.2,2.6,5.9,5.9,5.9c3.2,0,5.9-2.6,5.9-5.9v-22.2l26.4,26.4
	c2.3,2.3,6,2.3,8.3,0c2.3-2.3,2.3-6,0-8.3l-18.1-18.1h14c3.2,0,5.9-2.6,5.9-5.9V78.9C270.1,75.7,267.5,73.1,264.3,73.1z
	 M258.4,102.2c0,4-3.3,7.3-7.3,7.3H241c-4,0-7.3-3.3-7.3-7.3V92c0-4,3.2-7.2,7.2-7.2h10.3c4,0,7.2,3.2,7.2,7.2V102.2z"/>
	<path class="st2" d="M357.9,73.1h-27.4c-3.2,0-5.9,2.6-5.9,5.9c0,3.2,2.6,5.9,5.9,5.9h7.8v58.7c0,3.2,2.6,5.9,5.9,5.9
	c3.2,0,5.9-2.6,5.9-5.9V84.8h7.8c3.2,0,5.9-2.6,5.9-5.9C363.7,75.7,361.1,73.1,357.9,73.1z"/>
	<path class="st2" d="M413.8,73.1h-36.6c-3.1,0-5.5,2.4-5.8,5.4h-0.1v65.1c0,3.2,2.6,5.9,5.9,5.9h5.9h30.8c3.1,0,5.6-2.5,5.6-5.6
	V78.7C419.4,75.6,416.9,73.1,413.8,73.1z M407.7,131c0,3.7-3,6.7-6.7,6.7h-11.5c-3.6,0-6.6-2.9-6.6-6.6V91.4c0-3.7,3-6.6,6.6-6.6
	h11.2c3.8,0,6.8,3.1,6.8,6.8V131z"/>
	<path class="st0" d="M203.1,0.3H19C8.7,0.2,0.4,8.4,0.4,18.7v156.2c0,10.2,8.2,18.5,18.4,18.5l1,0c10.2,0,18.5-8.3,18.5-18.5
	l0.1-118.1c0-10.2,8.3-18.5,18.5-18.5l88.5,0.1L66.1,97.6c-8.2,6.1-9.9,17.7-3.8,25.9l101.1,135.5c6.1,8.2,17.7,9.9,25.9,3.8
	l0.8-0.6c8.2-6.1,9.9-17.7,3.8-25.9l-78.3-105c-6.1-8.2-4.4-19.8,3.8-25.9l93.8-70c5.3-3.6,8.5-9,8.5-15.5l0-1
	C221.6,8.6,213.4,0.3,203.1,0.3z"/>
</svg>
