<?xml version="1.0" encoding="utf-8"?>
<!-- Generator: Adobe Illustrator 21.0.0, SVG Export Plug-In . SVG Version: 6.00 Build 0)  -->
<svg version="1.1" id="Layer_1" xmlns="http://www.w3.org/2000/svg" xmlns:xlink="http://www.w3.org/1999/xlink" x="0px" y="0px"
	 viewBox="0 0 48.3 82.5" style="enable-background:new 0 0 48.3 82.5;" xml:space="preserve">
<style type="text/css">
	.st0{fill:#6CCDE2;}
	.st1{fill:#FFFFFF;}
</style>
<g>
	<g>
		<path class="st0" d="M42.7,19.6V8.3c0-1.1-0.4-2.2-1.3-3l-4-4c-0.8-0.8-1.9-1.3-3-1.3H9.9C7.6,0,5.7,1.9,5.7,4.3v61.5
			c0,2.4,1.9,4.3,4.3,4.3h28.5c2.4,0,4.3-1.9,4.3-4.3V26.2L42.7,19.6L42.7,19.6z M34.1,2.8c0.3,0,0.8,0,1.3,0.4l4,4
			c0.5,0.5,0.4,0.9,0.4,1.3h-5.7V2.8z M39.8,29v36.8c0,0.8-0.6,1.4-1.4,1.4H9.9c-0.8,0-1.4-0.6-1.4-1.4V4.3c0-0.8,0.6-1.4,1.4-1.4
			h21.4V10c0,0.8,0.6,1.4,1.4,1.4h7.1v11V29z"/>
		<g>
			<path class="st0" d="M34.1,14.2H14.2c-0.8,0-1.4,0.6-1.4,1.4c0,0.8,0.6,1.4,1.4,1.4h19.9c0.8,0,1.4-0.6,1.4-1.4
				C35.6,14.9,34.9,14.2,34.1,14.2L34.1,14.2z"/>
			<path class="st0" d="M34.1,19.9H14.2c-0.8,0-1.4,0.6-1.4,1.4s0.6,1.4,1.4,1.4h19.9c0.8,0,1.4-0.6,1.4-1.4
				C35.5,20.6,34.9,19.9,34.1,19.9L34.1,19.9z"/>
			<path class="st0" d="M34.1,25.6H14.2c-0.8,0-1.4,0.6-1.4,1.4s0.6,1.4,1.4,1.4h19.9c0.8,0,1.4-0.6,1.4-1.4
				C35.5,26.3,34.9,25.6,34.1,25.6L34.1,25.6z"/>
		</g>
	</g>
</g>
<polygon class="st0" points="48.3,58.4 44.2,53 45.1,46.3 38.8,43.8 36.3,37.5 29.6,38.4 24.2,34.2 18.8,38.3 12.1,37.4 9.6,43.7 
	3.3,46.2 4.2,52.9 0,58.4 4.1,63.8 3.2,70.5 9.5,73 12,79.3 18.7,78.3 24.1,82.5 29.5,78.3 36.2,79.3 38.7,73 45,70.4 44.1,63.7 "/>
<polygon class="st1" points="22.2,66.2 14.2,59.5 15.9,57.4 21.9,62.3 32.1,50.5 34.2,52.3 "/>
</svg>
