<?xml version="1.0" encoding="utf-8"?>
<!-- Generator: Adobe Illustrator 21.0.0, SVG Export Plug-In . SVG Version: 6.00 Build 0)  -->
<svg version="1.1" id="Layer_1" xmlns="http://www.w3.org/2000/svg" xmlns:xlink="http://www.w3.org/1999/xlink" x="0px" y="0px"
	 viewBox="0 0 53.8 53.7" style="enable-background:new 0 0 53.8 53.7;" xml:space="preserve">
<style type="text/css">
	.st0{fill:#6CCDE2;}
	.st1{fill:#FFFFFF;}
</style>
<polygon class="st0" points="53.8,26.9 49.2,20.9 50.2,13.4 43.2,10.7 40.4,3.6 32.9,4.7 26.9,0 20.9,4.6 13.4,3.6 10.7,10.6 
	3.6,13.4 4.7,20.8 0,26.9 4.6,32.9 3.6,40.3 10.6,43.1 13.4,50.1 20.8,49.1 26.8,53.7 32.8,49.1 40.3,50.1 43,43.1 50.1,40.3 
	49,32.8 "/>
<polygon class="st1" points="24.7,35.6 15.7,28.2 17.7,25.8 24.3,31.3 35.7,18.1 38,20.1 "/>
</svg>
