<?xml version="1.0" encoding="utf-8"?>
<!-- Generator: Adobe Illustrator 21.0.0, SVG Export Plug-In . SVG Version: 6.00 Build 0)  -->
<svg version="1.1" id="Layer_1" xmlns="http://www.w3.org/2000/svg" xmlns:xlink="http://www.w3.org/1999/xlink" x="0px" y="0px"
	 viewBox="0 0 28.2 34.1" style="enable-background:new 0 0 28.2 34.1;" xml:space="preserve">
<style type="text/css">
	.st0{fill:#F5AB26;}
</style>
<path class="st0" d="M28.2,29.5l-2-22c0-0.5-0.5-0.9-1-0.9h-4.1C21,3,17.9,0,14.1,0s-6.9,3-7,6.6H3C2.5,6.6,2.1,7,2,7.5l-2,22v0.1
	c0,2.5,2.4,4.5,5.3,4.5h17.6C25.8,34.1,28.2,32,28.2,29.5L28.2,29.5z M14.1,1.9c2.7,0,5,2.1,5,4.7h-10C9.1,4,11.4,1.9,14.1,1.9z"/>
</svg>
