<?xml version="1.0" encoding="utf-8"?>
<!-- Generator: Adobe Illustrator 21.0.0, SVG Export Plug-In . SVG Version: 6.00 Build 0)  -->
<svg version="1.1" id="Layer_1" xmlns="http://www.w3.org/2000/svg" xmlns:xlink="http://www.w3.org/1999/xlink" x="0px" y="0px"
	 viewBox="0 0 40 40" style="enable-background:new 0 0 40 40;" xml:space="preserve">
<style type="text/css">
	.st0{fill:#59C4C5;}
</style>
<g>
	<path class="st0" d="M19.9,0.3c-7.6,0-13.8,6.2-13.8,13.8c0,2.6,0.7,5.1,2,7.3L19.1,39c0.2,0.4,0.6,0.6,1,0.6l0,0
		c0.4,0,0.8-0.2,1-0.6l10.6-17.8c1.2-2.1,1.9-4.6,1.9-7.1C33.7,6.5,27.5,0.3,19.9,0.3z M29.8,19.9l-9.7,16.2l-10-16
		c-1.1-1.8-1.7-3.9-1.7-6c0-6.3,5.2-11.5,11.5-11.5s11.5,5.2,11.5,11.5C31.4,16.1,30.8,18.2,29.8,19.9z"/>
	<path class="st0" d="M19.9,7.2c-3.8,0-6.9,3.1-6.9,6.9c0,3.7,3.1,6.9,6.9,6.9c3.9,0,6.9-3.2,6.9-6.9C26.8,10.3,23.7,7.2,19.9,7.2z
		 M19.9,18.7c-2.6,0-4.6-2.1-4.6-4.6s2.1-4.6,4.6-4.6s4.6,2.1,4.6,4.6S22.5,18.7,19.9,18.7z"/>
</g>
</svg>
