<?xml version="1.0" encoding="utf-8"?>
<!-- Generator: Adobe Illustrator 21.0.0, SVG Export Plug-In . SVG Version: 6.00 Build 0)  -->
<svg version="1.1" id="Layer_1" xmlns="http://www.w3.org/2000/svg" xmlns:xlink="http://www.w3.org/1999/xlink" x="0px" y="0px"
	 viewBox="0 0 40 40" style="enable-background:new 0 0 40 40;" xml:space="preserve">
<style type="text/css">
	.st0{fill:#59C4C5;}
</style>
<path class="st0" d="M39.6,26.1V9.5c0-2.5-2-4.5-4.5-4.5H5C2.5,5,0.5,7,0.5,9.5v21.1c0,2.5,2,4.5,4.5,4.5h30.1c2.5,0,4.5-2,4.5-4.5
	V29 M34.3,8L21.1,21.3c-0.6,0.6-1.5,0.6-2.1,0L5.8,8H34.3z M3.5,29.9V10l9.9,10L3.5,29.9z M5.6,32.1l9.9-9.9l1.3,1.3
	c1.7,1.8,4.6,1.8,6.4,0l1.3-1.3l9.9,9.9H5.6z M36.6,29.9L26.6,20l9.9-10V29.9z"/>
</svg>
