<?xml version="1.0" encoding="utf-8"?>
<!-- Generator: Adobe Illustrator 21.0.0, SVG Export Plug-In . SVG Version: 6.00 Build 0)  -->
<svg version="1.1" id="Layer_1" xmlns="http://www.w3.org/2000/svg" xmlns:xlink="http://www.w3.org/1999/xlink" x="0px" y="0px"
	 viewBox="0 0 40 40" style="enable-background:new 0 0 40 40;" xml:space="preserve">
<style type="text/css">
	.st0{fill:#59C4C5;}
</style>
<path class="st0" d="M28.6,1.5H11.4C9,1.5,7.1,3.4,7.1,5.8v28.4c0,2.3,1.9,4.3,4.3,4.3h17.2c2.3,0,4.3-1.9,4.3-4.3V5.8
	C32.9,3.4,30.9,1.5,28.6,1.5L28.6,1.5z M9.9,5.8c0-0.8,0.6-1.4,1.4-1.4h17.2c0.8,0,1.4,0.6,1.4,1.4v1.4h-20C9.9,7.2,9.9,5.8,9.9,5.8
	z M9.9,10H30v19.9H9.9V10z M30,34.3c0,0.8-0.6,1.4-1.4,1.4H11.4c-0.8,0-1.4-0.6-1.4-1.4v-1.4h20.1v1.4H30z"/>
</svg>
